<?xml version="1.0" encoding="UTF-8"?>
<svg width="24" height="24" viewBox="0 0 24 24" fill="none" xmlns="http://www.w3.org/2000/svg">
  <path d="M4 11H20M4 11C2.89543 11 2 10.1046 2 9V7C2 5.89543 2.89543 5 4 5H20C21.1046 5 22 5.89543 22 7V9C22 10.1046 21.1046 11 20 11M4 11L4 13C4 14.1046 4.89543 15 6 15H18C19.1046 15 20 14.1046 20 13V11" stroke="#1a73e8" stroke-width="2" stroke-linecap="round" stroke-linejoin="round"/>
  <path d="M6 15L6 19" stroke="#1a73e8" stroke-width="2" stroke-linecap="round"/>
  <path d="M18 15L18 19" stroke="#1a73e8" stroke-width="2" stroke-linecap="round"/>
</svg> 