<?xml version="1.0" encoding="UTF-8"?>
<svg width="24" height="24" viewBox="0 0 24 24" fill="none" xmlns="http://www.w3.org/2000/svg">
  <path d="M16 12L18.29 14.29C18.92 14.92 18.92 15.95 18.29 16.58L16.58 18.29C15.95 18.92 14.92 18.92 14.29 18.29L12 16M11 6L7 2M20 11C20 15.97 15.97 20 11 20C6.03 20 2 15.97 2 11C2 6.03 6.03 2 11 2" stroke="#1a73e8" stroke-width="2" stroke-linecap="round" stroke-linejoin="round"/>
  <path d="M11 13C12.1046 13 13 12.1046 13 11C13 9.89543 12.1046 9 11 9C9.89543 9 9 9.89543 9 11C9 12.1046 9.89543 13 11 13Z" fill="#1a73e8"/>
</svg> 